<svg width="30" height="30" viewBox="0 0 30 30" fill="none" xmlns="http://www.w3.org/2000/svg">
<path d="M12.12 16.56C12.03 16.56 10.05 16.56 9.15002 16.56C8.67002 16.56 8.52002 16.38 8.52002 15.93C8.52002 14.73 8.52002 13.5 8.52002 12.3C8.52002 11.82 8.70002 11.67 9.15002 11.67H12.12C12.12 11.58 12.12 9.84003 12.12 9.03003C12.12 7.83003 12.33 6.69003 12.93 5.64003C13.56 4.56003 14.46 3.84003 15.6 3.42003C16.35 3.15003 17.1 3.03003 17.91 3.03003H20.85C21.27 3.03003 21.45 3.21003 21.45 3.63003V7.05003C21.45 7.47003 21.27 7.65003 20.85 7.65003C20.04 7.65003 19.23 7.65003 18.42 7.68003C17.61 7.68003 17.19 8.07003 17.19 8.91003C17.16 9.81003 17.19 10.68 17.19 11.61H20.67C21.15 11.61 21.33 11.79 21.33 12.27V15.9C21.33 16.38 21.18 16.53 20.67 16.53C19.59 16.53 17.28 16.53 17.19 16.53V26.31C17.19 26.82 17.04 27 16.5 27C15.24 27 14.01 27 12.75 27C12.3 27 12.12 26.82 12.12 26.37C12.12 23.22 12.12 16.65 12.12 16.56Z" fill="white"/>
</svg>
