<svg xmlns="http://www.w3.org/2000/svg" width="39" height="39" viewBox="0 0 39 39"><defs><style>.a{fill:#4a4a4a;}</style></defs><path class="a" d="M35.7,21.584a4.423,4.423,0,0,1-3.1.281,39.2,39.2,0,0,1-4.3-1.133,8.065,8.065,0,0,0,.005-2.46c.589-.148,1.151-.275,1.659-.377a4.42,4.42,0,0,1,3.1.281,2.1,2.1,0,0,0,1.347.1,2.526,2.526,0,0,0,1.957-2.451,2.6,2.6,0,0,0-3.264-2.564,2.1,2.1,0,0,0-1.152.766,4.429,4.429,0,0,1-2.548,1.8c-.485.164-1.027.331-1.6.5a8.88,8.88,0,0,0-1.347-2.371,15.066,15.066,0,0,1,1.664-1.6,4.421,4.421,0,0,1,2.828-1.31,2.1,2.1,0,0,0,1.214-.591,2.526,2.526,0,0,0,.47-3.1,2.594,2.594,0,0,0-4.107-.588,2.11,2.11,0,0,0-.615,1.24A4.431,4.431,0,0,1,26.6,10.824a14.18,14.18,0,0,1-1.609,1.667,8.88,8.88,0,0,0-1.943-1.167,4.241,4.241,0,0,1,1.287-1.389,2.105,2.105,0,0,0,.756-1.12,2.528,2.528,0,0,0-1.144-2.921A2.6,2.6,0,0,0,20.1,7.441a2.107,2.107,0,0,0,.087,1.381,4.253,4.253,0,0,1,.421,1.835,8.088,8.088,0,0,0-2.413.03,39.324,39.324,0,0,1-1.124-4.275,4.427,4.427,0,0,1,.281-3.107,2.113,2.113,0,0,0,.1-1.348A2.525,2.525,0,0,0,15,0a2.6,2.6,0,0,0-2.561,3.266A2.1,2.1,0,0,0,13.2,4.419,4.423,4.423,0,0,1,15,6.969a38.951,38.951,0,0,1,1.165,4.267A8.9,8.9,0,0,0,14,12.5a4.36,4.36,0,0,1-1.173-2.664,2.1,2.1,0,0,0-.592-1.215,2.522,2.522,0,0,0-3.1-.47,2.6,2.6,0,0,0-.586,4.111,2.1,2.1,0,0,0,1.238.615,4.364,4.364,0,0,1,2.673,1.182,8.9,8.9,0,0,0-1.235,2.173A39.113,39.113,0,0,1,6.96,15.061a4.426,4.426,0,0,1-2.548-1.8,2.1,2.1,0,0,0-1.119-.757A2.524,2.524,0,0,0,.374,13.653,2.6,2.6,0,0,0,1.92,17.505a2.1,2.1,0,0,0,1.38-.086,4.412,4.412,0,0,1,3.1-.281,39.22,39.22,0,0,1,4.291,1.13,8.1,8.1,0,0,0-.02,2.3,4.271,4.271,0,0,1-1.8-.42,2.093,2.093,0,0,0-1.347-.1A2.524,2.524,0,0,0,5.569,22.5a2.6,2.6,0,0,0,3.264,2.564A2.1,2.1,0,0,0,9.984,24.3a4.25,4.25,0,0,1,1.356-1.269,8.841,8.841,0,0,0,1.2,1.991,39.252,39.252,0,0,1-3.152,3.127,4.422,4.422,0,0,1-2.83,1.31,2.1,2.1,0,0,0-1.214.592,2.526,2.526,0,0,0-.47,3.1,2.6,2.6,0,0,0,4.107.587A2.109,2.109,0,0,0,9.6,32.5a4.43,4.43,0,0,1,1.309-2.831,39.248,39.248,0,0,1,3.134-3.163,8.835,8.835,0,0,0,2.245,1.275,4.2,4.2,0,0,1-1.587,2,2.105,2.105,0,0,0-.756,1.12,2.527,2.527,0,0,0,1.144,2.921,2.594,2.594,0,0,0,3.85-1.546,2.1,2.1,0,0,0-.087-1.381,4.229,4.229,0,0,1-.371-2.564,8.124,8.124,0,0,0,2.317-.042,39.2,39.2,0,0,1,1.132,4.3,4.434,4.434,0,0,1-.28,3.107,2.107,2.107,0,0,0-.087,1.381,2.6,2.6,0,0,0,3.85,1.547A2.528,2.528,0,0,0,26.554,35.7a2.1,2.1,0,0,0-.756-1.12,4.429,4.429,0,0,1-1.8-2.55,39.136,39.136,0,0,1-1.17-4.294A8.9,8.9,0,0,0,24.971,26.5a4.309,4.309,0,0,1,1.083,2.556,2.1,2.1,0,0,0,.592,1.215,2.522,2.522,0,0,0,3.1.47,2.6,2.6,0,0,0,.586-4.111,2.1,2.1,0,0,0-1.238-.615,4.311,4.311,0,0,1-2.559-1.089,8.851,8.851,0,0,0,1.229-2.151,39.364,39.364,0,0,1,4.276,1.168,4.423,4.423,0,0,1,2.548,1.8,2.1,2.1,0,0,0,1.119.756,2.522,2.522,0,0,0,2.919-1.144A2.6,2.6,0,0,0,37.08,21.5,2.1,2.1,0,0,0,35.7,21.584Z"/></svg>