<svg width="24" height="24" viewBox="0 0 24 24" fill="none" xmlns="http://www.w3.org/2000/svg">
<path d="M11.9999 0.706055C8.47047 0.706055 5.64694 3.52958 5.64694 7.059V9.88253C4.44694 9.88253 3.5293 10.8002 3.5293 12.0002V21.1766C3.5293 22.3766 4.44694 23.2943 5.64694 23.2943H18.3528C19.5528 23.2943 20.4705 22.3766 20.4705 21.1766V12.0002C20.4705 10.8002 19.5528 9.88253 18.3528 9.88253V7.059C18.3528 3.52958 15.5293 0.706055 11.9999 0.706055ZM19.0587 12.0002V21.1766C19.0587 21.6002 18.7764 21.8825 18.3528 21.8825H5.64694C5.22341 21.8825 4.94106 21.6002 4.94106 21.1766V12.0002C4.94106 11.5766 5.22341 11.2943 5.64694 11.2943H6.35283H17.6469H18.3528C18.7764 11.2943 19.0587 11.5766 19.0587 12.0002ZM7.05871 9.88253V7.059C7.05871 4.30605 9.24694 2.11782 11.9999 2.11782C14.7528 2.11782 16.9411 4.30605 16.9411 7.059V9.88253H7.05871Z" fill="#BFBFBF"/>
<path d="M12 13.4121C10.8 13.4121 9.88232 14.3298 9.88232 15.5298C9.88232 16.4474 10.447 17.2239 11.2941 17.5062V19.0592C11.2941 19.4827 11.5764 19.7651 12 19.7651C12.4235 19.7651 12.7059 19.4827 12.7059 19.0592V17.5062C13.5529 17.2239 14.1176 16.4474 14.1176 15.5298C14.1176 14.3298 13.2 13.4121 12 13.4121ZM12 16.2356C11.5764 16.2356 11.2941 15.9533 11.2941 15.5298C11.2941 15.1062 11.5764 14.8239 12 14.8239C12.4235 14.8239 12.7059 15.1062 12.7059 15.5298C12.7059 15.9533 12.4235 16.2356 12 16.2356Z" fill="#BFBFBF"/>
</svg>
