<svg width="24" height="24" viewBox="0 0 24 24" fill="none" xmlns="http://www.w3.org/2000/svg">
<g opacity="0.5">
<path d="M11.9999 2.3999C6.7064 2.3999 2.3999 6.7067 2.3999 11.9999C2.3999 17.2931 6.7064 21.5999 11.9999 21.5999C17.2931 21.5999 21.5999 17.2934 21.5999 11.9999C21.5999 6.7064 17.2931 2.3999 11.9999 2.3999ZM11.9999 3.5999C16.6316 3.5999 20.3999 7.3679 20.3999 11.9999C20.3999 13.6808 19.9019 15.2462 19.0484 16.5608C18.6119 14.4386 17.231 12.6017 15.2915 11.6009C15.8582 10.8845 16.1999 9.9821 16.1999 8.9999C16.1999 6.6839 14.3159 4.7999 11.9999 4.7999C9.6839 4.7999 7.7999 6.6839 7.7999 8.9999C7.7999 9.9821 8.1416 10.8845 8.7083 11.6009C6.7685 12.6017 5.3879 14.4386 4.9514 16.5608C4.0979 15.2462 3.5999 13.6808 3.5999 11.9999C3.5999 7.3679 7.3679 3.5999 11.9999 3.5999ZM8.9999 8.9999C8.9999 7.3457 10.3457 5.9999 11.9999 5.9999C13.6541 5.9999 14.9999 7.3457 14.9999 8.9999C14.9999 10.6541 13.6541 11.9999 11.9999 11.9999C10.3457 11.9999 8.9999 10.6541 8.9999 8.9999ZM11.9999 20.3999C9.6539 20.3999 7.5305 19.4318 6.005 17.8757C6.0542 15.5192 7.4945 13.4003 9.6524 12.4811C10.3229 12.9347 11.1308 13.1999 11.9999 13.1999C12.8687 13.1999 13.6769 12.9347 14.3474 12.4811C16.5053 13.4003 17.9456 15.5192 17.9948 17.8757C16.4693 19.4318 14.3459 20.3999 11.9999 20.3999Z" fill="#203B2B"/>
</g>
</svg>
