<svg xmlns="http://www.w3.org/2000/svg" width="60.849" height="91.49" viewBox="0 0 60.849 91.49"><defs><style>.a{fill:#ef3a42;}.b{fill:#fff;}.c{fill:#ed3b42;}.d{fill:#241f21;}</style></defs><path class="a" d="M232.849,380H172a125.213,125.213,0,0,0,5.234,33.883h25.19v6.779H179.507c.839,2.255,1.771,4.524,2.8,6.775h20.112v6.78H185.761c1.3,2.3,2.721,4.568,4.271,6.775h12.392v6.777H195.4a67.536,67.536,0,0,0,7.019,6.775c27.166-22.618,30.425-62.816,30.425-74.545" transform="translate(-172 -363.057)"/><path class="b" d="M195.035,416H182.643a73.389,73.389,0,0,0,5.372,6.777h7.019V416Z" transform="translate(-164.611 -338.064)"/><path class="b" d="M198.2,408H178.086q1.563,3.421,3.449,6.78H198.2V408Z" transform="translate(-167.775 -343.618)"/><path class="b" d="M200.279,400h-25.19c.671,2.236,1.425,4.5,2.274,6.779h22.917V400Z" transform="translate(-169.855 -349.172)"/><path class="b" d="M196.392,385.019v6.836h-6.774v-6.836h-3.387v9.771c0,2.885-.917,4.776-3.505,4.776s-3.507-1.891-3.507-4.776v-9.771h-3.387v10.813c0,4.536,2.563,6.4,6.894,6.4,4.21,0,6.748-1.765,6.885-6.031h.007v-1.679h6.774v7.419h3.385V385.019Z" transform="translate(-169.34 -359.573)"/><path class="a" d="M206.687,377.076c0,2.807-1.516,5.086-3.38,5.086s-3.383-2.279-3.383-5.086,1.516-5.081,3.383-5.081,3.38,2.275,3.38,5.081" transform="translate(-152.614 -368.615)"/><path d="M196.011,434.378a50.186,50.186,0,0,0,11.85-32.9,52.8,52.8,0,0,0-1.967-14.355c-1.813-6.423-4.314-12.243-8.2-17.119h-4.053c3.883,4.876,6.386,10.7,8.2,17.119a52.8,52.8,0,0,1,1.967,14.355,50.186,50.186,0,0,1-11.85,32.9Z" transform="translate(-158.146 -370)"/><path class="c" d="M232.849,380H172a125.213,125.213,0,0,0,5.234,33.883h25.192v6.777H179.507c.84,2.257,1.771,4.524,2.8,6.777h20.114v6.779H185.761c1.3,2.3,2.723,4.569,4.271,6.775h12.393v6.777h-7.019a66.873,66.873,0,0,0,7.019,6.777c27.164-22.617,30.424-62.818,30.424-74.545" transform="translate(-172 -363.057)"/><path class="b" d="M195.036,416H182.644a72.94,72.94,0,0,0,5.372,6.777h7.019V416Z" transform="translate(-164.61 -338.064)"/><path class="b" d="M198.2,408H178.086c1.044,2.279,2.192,4.544,3.451,6.779H198.2V408Z" transform="translate(-167.775 -343.618)"/><path class="b" d="M200.28,400H175.09c.671,2.236,1.425,4.5,2.272,6.779H200.28V400Z" transform="translate(-169.855 -349.172)"/><path class="b" d="M196.393,385.02v6.836h-6.775V385.02h-3.385v9.769c0,2.885-.918,4.776-3.505,4.776s-3.509-1.891-3.509-4.776V385.02h-3.387v10.811c0,4.536,2.565,6.4,6.9,6.4,4.209,0,6.748-1.765,6.885-6.031h.005v-1.677h6.775v7.419h3.385V385.02Z" transform="translate(-169.34 -359.572)"/><path class="c" d="M206.687,377.077c0,2.809-1.515,5.084-3.38,5.084s-3.383-2.275-3.383-5.084S201.44,372,203.307,372s3.38,2.274,3.38,5.081" transform="translate(-152.614 -368.614)"/><path class="d" d="M196.012,434.38a50.187,50.187,0,0,0,11.85-32.906,52.786,52.786,0,0,0-1.967-14.354c-1.813-6.425-4.314-12.243-8.2-17.12h-4.054c3.887,4.878,6.387,10.7,8.2,17.12a52.72,52.72,0,0,1,1.967,14.354,50.2,50.2,0,0,1-11.848,32.906Z" transform="translate(-158.146 -370)"/></svg>